<svg xmlns="http://www.w3.org/2000/svg" width="100%" height="100%" viewBox="0 0 48 48" fill="none" preserveAspectRatio="xMidYMid meet" aria-hidden="true" role="img">
<rect width="48" height="48" rx="12" fill="#87C83C"/>
<path d="M22.8271 28.3791C21.7792 28.9086 20.6005 29.1235 19.4332 28.9979C18.2659 28.8723 17.1599 28.4115 16.2487 27.6712C15.3375 26.9309 14.6601 25.9426 14.2982 24.8258C13.9362 23.7089 13.9053 22.5111 14.2091 21.3771L19.6211 22.8271C19.0916 21.7792 18.8766 20.6005 19.0023 19.4332C19.1279 18.2659 19.5886 17.1599 20.329 16.2487C21.0693 15.3375 22.0576 14.6601 23.1744 14.2982C24.2913 13.9362 25.489 13.9053 26.6231 14.2091L25.1731 19.6211C26.2209 19.0916 27.3996 18.8766 28.5669 19.0023C29.7343 19.1279 30.8402 19.5886 31.7514 20.329C32.6626 21.0693 33.3401 22.0576 33.702 23.1744C34.0639 24.2913 34.0949 25.489 33.7911 26.6231L28.3791 25.1731C28.9086 26.2209 29.1235 27.3996 28.9979 28.5669C28.8723 29.7343 28.4115 30.8402 27.6712 31.7514C26.9309 32.6626 25.9426 33.3401 24.8258 33.702C23.7089 34.0639 22.5111 34.0949 21.3771 33.7911L22.8271 28.3791Z" stroke="#003309" stroke-width="2" stroke-linecap="round" stroke-linejoin="round"/>
<path d="M24 24V24.01" stroke="#003309" stroke-width="2" stroke-linecap="round" stroke-linejoin="round"/>
</svg>